<?xml version="1.0" encoding="utf-8"?>
<!-- Generator: Adobe Illustrator 23.0.3, SVG Export Plug-In . SVG Version: 6.00 Build 0)  -->
<svg version="1.1" id="Layer_1" xmlns="http://www.w3.org/2000/svg" xmlns:xlink="http://www.w3.org/1999/xlink" x="0px" y="0px"
	 viewBox="0 0 60 60" style="enable-background:new 0 0 60 60;" xml:space="preserve">
<g>
	<defs>
		<path id="SVGID_1_" d="M30,0c16.5,0,30,13.5,30,30S46.5,60,30,60S0,46.5,0,30l0,0C0,13.5,13.5,0,30,0z"/>
	</defs>
	<clipPath id="SVGID_2_">
		<use xlink:href="#SVGID_1_"  style="overflow:visible;"/>
	</clipPath>
	<path style="clip-path:url(#SVGID_2_);fill:#D7E1E3;" d="M30,60C13.5,60,0,46.5,0,30S13.5,0,30,0s30,13.5,30,30c0,8.1-3.3,15.6-8.7,21.3l0,0C45.6,57,38.1,60,30,60z"/>
</g>
<g>
	<defs>
		<path id="SVGID_3_" d="M30,0c16.5,0,30,13.5,30,30S46.5,60,30,60S0,46.5,0,30l0,0C0,13.5,13.5,0,30,0z"/>
	</defs>
	<clipPath id="SVGID_4_">
		<use xlink:href="#SVGID_3_"  style="overflow:visible;"/>
	</clipPath>
	<path style="clip-path:url(#SVGID_4_);fill:#FFFFFF;" d="M49.2,61H11.4v-2.6c0.1-2.4,1.2-4.6,3-5.9l0,0c1.8-1,6.3-3.9,9-5.6l0.6-1.6h-9.6c-0.7,0-1.3-0.4-1.8-1l0,0
		c-0.3-0.6-0.3-1.3,0-2c2.7-4.6,4.5-9.7,5.4-15c0.6-1.3,0.6-2.9,0.6-4.6c0-7,5.2-12.7,11.7-12.7c2.7,0,5.4,1,7.5,2.9
		c3.6,4.2,4.2,8.8,5.1,15c0,1,0.3,1.6,0.3,2.6l0,0c1,4.1,2.7,7.9,4.8,11.4l0,0c0.3,0.6,0.3,1.3,0,2l0,0c-0.4,0.7-1.1,1.1-1.8,1H36
		l0.9,1.6c3.3,2,8.7,5.2,9,5.6c1.8,1.3,2.9,3.5,3,5.9L49.2,61z"/>
	<path style="clip-path:url(#SVGID_4_);" d="M49.8,61.5H10.9v-3.1c0.1-2.5,1.3-4.9,3.2-6.3c1.1-0.6,3.2-1.9,5.2-3.2c1.3-0.8,2.6-1.6,3.7-2.3l0.3-0.8h-8.9
		c-0.9-0.1-1.7-0.5-2.2-1.2l-0.1-0.1c-0.4-0.8-0.4-1.6,0-2.4c2.7-4.6,4.5-9.6,5.4-14.9l0-0.1c0.6-1.2,0.6-2.7,0.6-4.4
		c0-7.3,5.5-13.2,12.2-13.3c2.9,0,5.6,1.1,7.8,3.1c3.7,4.3,4.3,9,5.2,15l0.1,0.4c0,0.5,0.1,0.9,0.1,1.3c0.1,0.4,0.2,0.8,0.2,1.3
		c1,4,2.6,7.8,4.7,11.2c0.4,0.8,0.4,1.7,0,2.4c-0.5,0.9-1.4,1.4-2.3,1.3l-9.3,0l0.4,0.8c1,0.6,8.1,4.8,8.9,5.5
		c1.9,1.4,3.1,3.7,3.2,6.3L49.8,61.5z M11.9,60.5h36.7l-0.2-2.4c-0.1-2.3-1.1-4.3-2.8-5.5l-0.1-0.1c-0.4-0.3-4.9-3.1-8.9-5.5
		L36.5,47l-1.4-2.5h11c0.6,0.1,1.1-0.2,1.4-0.7c0.2-0.5,0.2-1,0-1.5c-2.1-3.5-3.8-7.4-4.8-11.5l0-0.1c0-0.4-0.1-0.8-0.1-1.2
		c-0.1-0.4-0.2-0.9-0.2-1.4l0-0.3c-0.9-6-1.5-10.4-4.9-14.4c-2-1.8-4.5-2.8-7.1-2.8c-6.2,0-11.2,5.5-11.2,12.3c0,1.6,0,3.3-0.6,4.7
		C17.6,32.9,15.7,38,13,42.6c-0.2,0.4-0.2,1,0,1.4c0.4,0.4,0.9,0.7,1.4,0.7l10.3,0l-0.9,2.5l-0.2,0.1c-1.1,0.7-2.4,1.5-3.8,2.4
		c-2,1.3-4.1,2.6-5.2,3.2c-1.6,1.2-2.7,3.2-2.7,5.5V60.5z"/>
</g>
<path d="M30,1c16,0,29,13,29,29c0,7.6-3,14.9-8.4,20.6C45.2,56,37.9,59,30,59C14,59,1,46,1,30S14,1,30,1 M30,0C13.5,0,0,13.5,0,30
	s13.5,30,30,30c8.1,0,15.6-3,21.3-8.7C56.7,45.6,60,38.1,60,30C60,13.5,46.5,0,30,0L30,0z"/>
</svg>
