<svg xmlns="http://www.w3.org/2000/svg" width="421.444" height="81.448" viewBox="0 0 421.444 81.448">
  <g id="NHCOne_login_logo" transform="translate(-3.2)">
    <path id="Path_1" data-name="Path 1" d="M241.1,72a40.619,40.619,0,0,0,60.044,0Z" transform="translate(-12.593 -3.811)" fill="#20b2aa"/>
    <path id="Path_2" data-name="Path 2" d="M247.137,54.93a26.952,26.952,0,0,1-3.978-14.206,27.465,27.465,0,0,1,54.93,0,26.952,26.952,0,0,1-3.978,14.206h14.68a41.519,41.519,0,0,0,2.557-14.206,40.724,40.724,0,0,0-81.448,0,41.519,41.519,0,0,0,2.557,14.206Z" transform="translate(-12)" fill="#20b2aa"/>
    <path id="Path_3" data-name="Path 3" d="M50.553,3V57.551L16.459,3H3.2V78.765H16.459V24.214L50.553,78.765H63.812V3Z" transform="translate(0 -0.159)" fill="#fff"/>
    <path id="Path_4" data-name="Path 4" d="M93.759,3H80.5V78.765H93.759V3Z" transform="translate(-4.092 -0.159)" fill="#fff"/>
    <rect id="Rectangle_3" data-name="Rectangle 3" width="26.044" height="13.259" transform="translate(86.163 30.117)" fill="#fff"/>
    <path id="Path_5" data-name="Path 5" d="M137.459,3H124.2V78.765h13.259V3Z" transform="translate(-6.405 -0.159)" fill="#fff"/>
    <path id="Path_6" data-name="Path 6" d="M199.631,62.849a25.38,25.38,0,0,1-13.259,3.694,25.665,25.665,0,1,1,0-51.331,25.38,25.38,0,0,1,13.259,3.694V5.268A38.684,38.684,0,0,0,186.372,2.9a38.072,38.072,0,1,0,0,76.144,38.684,38.684,0,0,0,13.259-2.368Z" transform="translate(-7.681 -0.154)" fill="#fff"/>
    <path id="n" d="M343.059,79.824H329.8V23h13.259Zm20.835-31.443c0-4.546-1.137-9.565-7.577-11.175-3.788-.947-9.471.947-9.471.947V24.894a42.962,42.962,0,0,1,9.471-.947c14.206,0,20.835,8.524,20.835,24.718V79.824H363.894Z" transform="translate(-17.289 -1.218)" fill="#fff"/>
    <path id="Path_7" data-name="Path 7" d="M445.167,53.538V51.265c0-8.713-2.368-15.437-7.1-20.267s-11.27-7.2-19.7-7.2c-8.05,0-14.68,2.652-19.794,7.955S390.9,43.783,390.9,52.023c0,8.524,2.462,15.342,7.482,20.551,5.019,5.114,11.649,7.671,20.078,7.671A29.777,29.777,0,0,0,433.8,76.362c4.357-2.557,7.955-6.535,10.986-11.744l-10.134-5.682A20.072,20.072,0,0,1,427.93,66.8a17.828,17.828,0,0,1-9.66,2.462c-4.357,0-7.861-1.326-10.418-4.072-2.652-2.746-4.072-6.535-4.356-11.459V52.591A28.229,28.229,0,0,1,404.064,47l.189-1.326a15.823,15.823,0,0,1,5.019-8.713c2.368-1.894,5.588-2.841,9.471-2.841,4.167,0,7.482.947,9.849,2.936s3.788,4.83,4.357,8.618H411.83v8.05h33.337Z" transform="translate(-20.523 -1.26)" fill="#fff"/>
  </g>
</svg>
